<svg width="32.000000" height="32.000000" viewBox="0 0 32 32" fill="none" xmlns="http://www.w3.org/2000/svg" xmlns:xlink="http://www.w3.org/1999/xlink">
	<desc>
			Created with Pixso.
	</desc>
	<defs>
		<clipPath id="clip132_46">
			<rect id="Круговая двойная стрелка вправо" width="32.000000" height="32.000000" fill="white" fill-opacity="0"/>
		</clipPath>
	</defs>
	<g clip-path="url(#clip132_46)">
		<path id="path" d="M15.99 29.33C23.36 29.33 29.33 23.36 29.33 16C29.33 8.63 23.36 2.66 15.99 2.66C8.63 2.66 2.66 8.63 2.66 16C2.66 23.36 8.63 29.33 15.99 29.33Z" fill="#000000" fill-opacity="0" fill-rule="nonzero"/>
		<path id="path" d="M29.33 16C29.33 8.63 23.36 2.66 15.99 2.66C8.63 2.66 2.66 8.63 2.66 16C2.66 23.36 8.63 29.33 15.99 29.33C23.36 29.33 29.33 23.36 29.33 16Z" stroke="#FFFFFF" stroke-opacity="1.000000" stroke-width="2.000000" stroke-linejoin="round"/>
		<path id="path" d="M12.04 21.34L12.04 21.37C11.64 21.76 11.02 21.76 10.62 21.37C10.22 20.97 10.22 20.35 10.62 19.95L10.65 19.95L12.04 21.34ZM10.65 12.04L10.62 12.04C10.22 11.64 10.22 11.02 10.62 10.62C11.02 10.23 11.64 10.23 12.04 10.62L12.04 10.65L10.65 12.04Z" fill="#000000" fill-opacity="0" fill-rule="nonzero"/>
		<path id="path" d="M11.33 20.66L15.99 15.99L11.33 11.33" stroke="#FFFFFF" stroke-opacity="1.000000" stroke-width="2.000000" stroke-linejoin="round" stroke-linecap="round"/>
		<path id="path" d="M18.04 21.34L18.04 21.37C17.64 21.76 17.02 21.76 16.62 21.37C16.23 20.97 16.23 20.35 16.62 19.95L16.65 19.95L18.04 21.34ZM16.65 12.04L16.62 12.04C16.23 11.64 16.23 11.02 16.62 10.62C17.02 10.23 17.64 10.23 18.04 10.62L18.04 10.65L16.65 12.04Z" fill="#000000" fill-opacity="0" fill-rule="nonzero"/>
		<path id="path" d="M17.33 20.66L21.99 15.99L17.33 11.33" stroke="#FFFFFF" stroke-opacity="1.000000" stroke-width="2.000000" stroke-linejoin="round" stroke-linecap="round"/>
	</g>
</svg>
