<svg width="32.000000" height="32.000000" viewBox="0 0 32 32" fill="none" xmlns="http://www.w3.org/2000/svg" xmlns:xlink="http://www.w3.org/1999/xlink">
	<desc>
			Created with Pixso.
	</desc>
	<defs>
		<clipPath id="clip132_42">
			<rect id="Круговая двойная стрелка влево" width="32.000000" height="32.000000" fill="white" fill-opacity="0"/>
		</clipPath>
	</defs>
	<g clip-path="url(#clip132_42)">
		<path id="path" d="M16 29.33C23.36 29.33 29.33 23.36 29.33 16C29.33 8.63 23.36 2.66 16 2.66C8.63 2.66 2.66 8.63 2.66 16C2.66 23.36 8.63 29.33 16 29.33Z" fill="#000000" fill-opacity="0" fill-rule="nonzero"/>
		<path id="path" d="M29.33 16C29.33 8.63 23.36 2.66 16 2.66C8.63 2.66 2.66 8.63 2.66 16C2.66 23.36 8.63 29.33 16 29.33C23.36 29.33 29.33 23.36 29.33 16Z" stroke="#FFFFFF" stroke-opacity="1.000000" stroke-width="2.000000" stroke-linejoin="round"/>
		<path id="path" d="M15.34 19.95L15.37 19.95C15.76 20.35 15.76 20.97 15.37 21.37C14.97 21.76 14.35 21.76 13.95 21.37L13.95 21.34L15.34 19.95ZM13.95 10.65L13.95 10.62C14.35 10.23 14.97 10.23 15.37 10.62C15.76 11.02 15.76 11.64 15.37 12.04L15.34 12.04L13.95 10.65Z" fill="#000000" fill-opacity="0" fill-rule="nonzero"/>
		<path id="path" d="M14.66 20.66L10 15.99L14.66 11.33" stroke="#FFFFFF" stroke-opacity="1.000000" stroke-width="2.000000" stroke-linejoin="round" stroke-linecap="round"/>
		<path id="path" d="M21.34 19.95L21.37 19.95C21.76 20.35 21.76 20.97 21.37 21.37C20.97 21.76 20.35 21.76 19.95 21.37L19.95 21.34L21.34 19.95ZM19.95 10.65L19.95 10.62C20.35 10.23 20.97 10.23 21.37 10.62C21.76 11.02 21.76 11.64 21.37 12.04L21.34 12.04L19.95 10.65Z" fill="#000000" fill-opacity="0" fill-rule="nonzero"/>
		<path id="path" d="M20.66 20.66L16 15.99L20.66 11.33" stroke="#FFFFFF" stroke-opacity="1.000000" stroke-width="2.000000" stroke-linejoin="round" stroke-linecap="round"/>
	</g>
</svg>
