<svg width="23.999992" height="24.000000" viewBox="0 0 24 24" fill="none" xmlns="http://www.w3.org/2000/svg" xmlns:xlink="http://www.w3.org/1999/xlink">
	<desc>
			Created with Pixso.
	</desc>
	<defs>
		<clipPath id="clip96_1">
			<rect id="Меню приложений" width="24.000000" height="24.000000" fill="white" fill-opacity="0"/>
		</clipPath>
	</defs>
	<g clip-path="url(#clip96_1)">
		<path id="path" d="M5 7C6.1 7 7 6.1 7 5C7 3.89 6.1 3 5 3C3.89 3 3 3.89 3 5C3 6.1 3.89 7 5 7Z" fill="#808080" fill-opacity="1.000000" fill-rule="nonzero"/>
		<path id="path" d="M12 7C13.1 7 14 6.1 14 5C14 3.89 13.1 3 12 3C10.89 3 10 3.89 10 5C10 6.1 10.89 7 12 7Z" fill="#808080" fill-opacity="1.000000" fill-rule="nonzero"/>
		<path id="path" d="M19 7C20.1 7 21 6.1 21 5C21 3.89 20.1 3 19 3C17.89 3 17 3.89 17 5C17 6.1 17.89 7 19 7Z" fill="#808080" fill-opacity="1.000000" fill-rule="nonzero"/>
		<path id="path" d="M5 14C6.1 14 7 13.1 7 12C7 10.89 6.1 10 5 10C3.89 10 3 10.89 3 12C3 13.1 3.89 14 5 14Z" fill="#808080" fill-opacity="1.000000" fill-rule="nonzero"/>
		<path id="path" d="M12 14C13.1 14 14 13.1 14 12C14 10.89 13.1 10 12 10C10.89 10 10 10.89 10 12C10 13.1 10.89 14 12 14Z" fill="#808080" fill-opacity="1.000000" fill-rule="nonzero"/>
		<path id="path" d="M19 14C20.1 14 21 13.1 21 12C21 10.89 20.1 10 19 10C17.89 10 17 10.89 17 12C17 13.1 17.89 14 19 14Z" fill="#808080" fill-opacity="1.000000" fill-rule="nonzero"/>
		<path id="path" d="M5 21C6.1 21 7 20.1 7 19C7 17.89 6.1 17 5 17C3.89 17 3 17.89 3 19C3 20.1 3.89 21 5 21Z" fill="#808080" fill-opacity="1.000000" fill-rule="nonzero"/>
		<path id="path" d="M12 21C13.1 21 14 20.1 14 19C14 17.89 13.1 17 12 17C10.89 17 10 17.89 10 19C10 20.1 10.89 21 12 21Z" fill="#808080" fill-opacity="1.000000" fill-rule="nonzero"/>
		<path id="path" d="M19 21C20.1 21 21 20.1 21 19C21 17.89 20.1 17 19 17C17.89 17 17 17.89 17 19C17 20.1 17.89 21 19 21Z" fill="#808080" fill-opacity="1.000000" fill-rule="nonzero"/>
	</g>
</svg>
